<svg xmlns="http://www.w3.org/2000/svg" width="428" height="400" viewBox="0 0 428 400" fill="none">
<path d="M362.189 0.604986C361.077 1.90172 293.277 23.2053 273.64 28.5775C255.486 33.5792 203.617 53.4007 196.207 58.2172C193.798 59.8844 191.946 62.6631 191.946 64.5156C191.946 66.3681 196.577 74.8895 202.135 83.4109C214.731 102.677 215.102 107.308 205.654 129.538C196.392 151.026 190.649 157.881 175.644 164.92C168.79 168.069 161.195 172.701 158.601 174.923C156.008 177.146 149.339 180.851 143.781 182.889C138.224 184.927 133.408 187.891 133.037 189.373C132.481 191.781 133.408 191.781 139.706 189.743C149.709 186.224 154.896 187.891 154.896 194.56C154.896 200.488 147.486 205.675 127.85 213.826C80.797 232.906 67.0887 239.019 60.7902 244.206C51.1573 251.616 49.8606 258.47 54.8623 274.031C56.9 280.33 58.5673 287.554 58.5673 289.777C58.5673 293.668 68.3854 321.825 83.5758 361.839C89.689 377.77 102.286 399.815 105.435 400C106.361 400 106.547 395.739 105.806 390.552C104.694 382.216 103.027 336.46 102.656 297.187C102.286 277.18 106.361 267.733 121.181 253.283C135.26 239.39 156.564 224.755 175.459 215.678C188.056 209.75 189.352 209.38 203.802 210.491C219.363 211.603 245.112 208.083 259.191 203.081C264.193 201.229 268.824 201.043 274.011 201.97C284.014 203.822 347.554 204.007 347.554 202.155C347.554 201.414 341.626 199.747 334.402 198.635C314.951 195.671 314.58 193.078 333.476 191.596C364.227 189.002 347.369 185.112 305.318 185.112C277.716 185.112 272.344 183.63 262.525 173.442C252.893 163.253 248.261 136.577 253.263 120.275C254.375 116.756 255.857 101.75 256.783 86.9306C257.524 72.1108 258.821 58.5877 259.562 56.7352C261.229 52.4745 281.977 40.4333 301.428 32.4677C309.949 28.948 323.657 23.2053 331.808 19.6855C344.776 14.1281 362.559 6.53293 374.415 1.71647C377.194 0.419737 376.453 0.0492411 370.525 0.0492411C366.45 -0.136007 362.559 0.234489 362.189 0.604986Z" />
</svg>