<svg width="31" height="25" viewBox="0 0 31 25" fill="none" xmlns="http://www.w3.org/2000/svg">
<g clip-path="url(#clip0_2207_8944)">
<path d="M3.77832 19.1833H20.8759C23.3252 19.1833 24.5439 17.9646 24.5439 15.5505V3.69116C24.5439 1.2771 23.3252 0.0583496 20.8759 0.0583496H3.77832C1.31738 0.0583496 0.0986328 1.2771 0.0986328 3.69116V15.5505C0.0986328 17.9646 1.31738 19.1833 3.77832 19.1833ZM1.98535 15.4451V3.79663C1.98535 2.57788 2.65332 1.94507 3.80175 1.94507H20.8408C22.0009 1.94507 22.6572 2.57788 22.6572 3.79663V15.4451C22.6572 16.6638 22.0127 17.2966 20.8408 17.2966H3.80175C2.62988 17.2966 1.98535 16.6638 1.98535 15.4451Z" fill="#000" fill-opacity="0.85"/>
<path d="M9.69629 24.6091H26.7939C29.2431 24.6091 30.4619 23.3904 30.4619 20.9763V10.2185C30.4619 7.80444 29.2431 6.59741 26.7939 6.59741H25.2822C24.4033 6.59741 24.1338 6.49194 23.6298 5.94116L22.7861 5.0271C22.1884 4.37085 21.6142 4.06616 20.7002 4.06616H15.79C14.8642 4.06616 14.3017 4.37085 13.6924 5.0271L12.8603 5.94116C12.3447 6.49194 12.0752 6.59741 11.1963 6.59741H9.69629C7.23535 6.59741 6.0166 7.80444 6.0166 10.2185V20.9763C6.0166 23.3904 7.23535 24.6091 9.69629 24.6091Z" fill="#f00"/>
<path d="M9.69629 24.6091H26.7939C29.2431 24.6091 30.4619 23.3904 30.4619 20.9763V10.2185C30.4619 7.80444 29.2431 6.59741 26.7939 6.59741H25.2822C24.4033 6.59741 24.1338 6.49194 23.6298 5.94116L22.7861 5.0271C22.1884 4.37085 21.6142 4.06616 20.7002 4.06616H15.79C14.8642 4.06616 14.3017 4.37085 13.6924 5.0271L12.8603 5.94116C12.3447 6.49194 12.0752 6.59741 11.1963 6.59741H9.69629C7.23535 6.59741 6.0166 7.80444 6.0166 10.2185V20.9763C6.0166 23.3904 7.23535 24.6091 9.69629 24.6091ZM9.71972 22.7224C8.54785 22.7224 7.90332 22.0896 7.90332 20.8708V10.324C7.90332 9.10522 8.54785 8.48413 9.71972 8.48413H11.6533C12.6611 8.48413 13.2822 8.27319 13.8798 7.62866L14.8877 6.51538C15.2627 6.12866 15.6142 5.95288 16.247 5.95288H20.2314C20.8759 5.95288 21.2158 6.12866 21.5908 6.51538L22.6103 7.62866C23.208 8.27319 23.8174 8.48413 24.8252 8.48413H26.7588C27.9306 8.48413 28.5752 9.10522 28.5752 10.324V20.8708C28.5752 22.0896 27.9306 22.7224 26.7588 22.7224H9.71972ZM18.2509 21.1404C21.3798 21.1404 23.9228 18.6091 23.9228 15.4568C23.9228 12.3279 21.3798 9.78491 18.2509 9.78491C15.1103 9.78491 12.5791 12.3279 12.5791 15.4568C12.5791 18.6091 15.1103 21.1404 18.2509 21.1404ZM18.2509 19.3474C16.1181 19.3474 14.372 17.6013 14.372 15.4568C14.372 13.324 16.1181 11.5896 18.2509 11.5896C20.3838 11.5896 22.1181 13.324 22.1181 15.4568C22.1181 17.6013 20.3838 19.3474 18.2509 19.3474ZM25.4463 12.7615C26.1728 12.7615 26.7705 12.1755 26.7705 11.449C26.7705 10.7224 26.1728 10.1247 25.4463 10.1247C24.7197 10.1247 24.1338 10.7224 24.1338 11.449C24.1338 12.1755 24.7197 12.7615 25.4463 12.7615Z" fill="#000" fill-opacity="0.85"/>
</g>
<defs>
<clipPath id="clip0_2207_8944">
<rect width="30.3633" height="24.5742" fill="#f00" transform="translate(0.0986328 0.0349121)"/>
</clipPath>
</defs>
</svg>
