<svg width="28" height="28" viewBox="0 0 28 28" fill="none" xmlns="http://www.w3.org/2000/svg">
<path d="M6.67969 24.5977H20.8945C23.3555 24.5977 24.5742 23.3789 24.5742 20.9648V6.65625C24.5742 4.24219 23.3555 3.02344 20.8945 3.02344H6.67969C4.23047 3.02344 3 4.23047 3 6.65625V20.9648C3 23.3906 4.23047 24.5977 6.67969 24.5977ZM6.70312 22.7109C5.53125 22.7109 4.88672 22.0898 4.88672 20.8711V6.75C4.88672 5.53125 5.53125 4.91016 6.70312 4.91016H20.8711C22.0312 4.91016 22.6875 5.53125 22.6875 6.75V20.8711C22.6875 22.0898 22.0312 22.7109 20.8711 22.7109H6.70312Z" fill="#000" fill-opacity="0.85"/>
<path d="M14.9664 17.5664L19.5602 12.6914C19.9118 12.3164 19.9235 11.7773 19.5954 11.4492C19.2438 11.0859 18.6696 11.0742 18.3414 11.4258L13.8063 16.2305L9.27117 11.4258C8.93133 11.0742 8.35711 11.0742 8.00555 11.4492C7.70086 11.7891 7.70086 12.3164 8.0407 12.6914L12.6462 17.5664C13.3727 18.3516 14.2282 18.3516 14.9664 17.5664Z" fill="#000" fill-opacity="0.85"/>
</svg>
