<svg width="35" height="32" viewBox="0 0 35 32" fill="none" xmlns="http://www.w3.org/2000/svg">
<g clip-path="url(#clip0_2124_45847)">
<path d="M4.92579 7.15503H11.6875C12.0977 7.15503 12.4258 6.81519 12.4258 6.39331C12.4258 5.97143 12.0977 5.61987 11.6875 5.61987H4.92579C4.50391 5.61987 4.1875 5.97143 4.1875 6.39331C4.1875 6.81519 4.50391 7.15503 4.92579 7.15503ZM0.730468 13.0261H8.75782C9.17969 13.0261 9.4961 12.6863 9.4961 12.2644C9.4961 11.8425 9.17969 11.491 8.75782 11.491H0.730468C0.320312 11.491 0.00390625 11.8542 0.00390625 12.2644C0.00390625 12.6745 0.320312 13.0261 0.730468 13.0261ZM4.23438 18.8972H8.69922C9.10938 18.8972 9.42579 18.5574 9.42579 18.1355C9.42579 17.7136 9.10938 17.3621 8.69922 17.3621H4.23438C3.8125 17.3621 3.4961 17.7136 3.4961 18.1355C3.4961 18.5574 3.8125 18.8972 4.23438 18.8972ZM1.15235 24.698H7.26953C7.67969 24.698 7.9961 24.3581 7.9961 23.9363C7.9961 23.5144 7.67969 23.1628 7.26953 23.1628H1.15235C0.742187 23.1628 0.425781 23.5144 0.425781 23.9363C0.425781 24.3581 0.742187 24.698 1.15235 24.698ZM14.0195 28.1081L17.5351 23.9128C17.8867 23.5027 17.9336 23.4089 18.0742 22.9753L18.332 22.1785L16.4453 19.8113L15.8711 22.4597L12.4023 26.5847C11.3008 27.9089 13.1055 29.198 14.0195 28.1081ZM22.5859 27.7566C23.3125 29.2214 25.4805 28.3191 24.6953 26.7253L22.3047 21.8855C22.1172 21.5222 21.8594 21.1238 21.6367 20.8074L20.125 18.6628L20.2305 18.3464C20.6289 17.1277 20.793 16.4011 20.875 15.1941L21.1094 11.8074C21.2266 10.2019 20.2773 8.98315 18.6367 8.98315C17.3945 8.98315 16.5625 9.60425 15.4141 10.7175L13.6328 12.4871C13.0469 13.0613 12.8594 13.53 12.8008 14.2917L12.5781 17.0574C12.5195 17.7605 12.9062 18.2527 13.5625 18.2761C14.2187 18.323 14.6172 17.9363 14.6758 17.1863L14.9336 14.1511L15.7891 13.3777C16.1055 13.0964 16.5156 13.2839 16.4922 13.6003L16.3047 16.1667C16.1992 17.4675 16.5039 18.0886 17.3945 19.2019L19.7734 22.1785C20.0078 22.4831 20.043 22.6003 20.1367 22.7878L22.5859 27.7566ZM26.6641 13.5535H23.9687L22.2578 11.6667L22.0586 14.491L22.7383 15.1706C23.1133 15.5456 23.4531 15.6628 24.1445 15.6628H26.6641C27.3789 15.6628 27.8359 15.2644 27.8359 14.6081C27.8359 13.9753 27.3672 13.5535 26.6641 13.5535ZM19.9375 7.92847C21.3555 7.92847 22.4922 6.78003 22.4922 5.37378C22.4922 3.95581 21.3555 2.81909 19.9375 2.81909C18.5195 2.81909 17.3828 3.95581 17.3828 5.37378C17.3828 6.78003 18.5195 7.92847 19.9375 7.92847Z" fill="#000" fill-opacity="0.85"/>
<path d="M21.5898 31.9988H31.75C33.5898 31.9988 34.9375 30.5925 34.9375 28.823C34.9375 28.2839 34.7851 27.7331 34.5039 27.2527L29.4297 18.1824C28.832 17.1394 27.7773 16.5652 26.6758 16.5652C25.5508 16.5652 24.4844 17.1511 23.9101 18.1941L18.8359 27.2644C18.5664 27.7331 18.4141 28.2956 18.4141 28.823C18.4141 30.5925 19.75 31.9988 21.5898 31.9988Z" fill="#f00"/>
<path d="M21.5898 30.3933H31.75C32.7109 30.3933 33.332 29.7019 33.332 28.823C33.332 28.5535 33.2617 28.2956 33.1094 28.0378L28.0351 18.9675C27.7305 18.4285 27.2031 18.1706 26.6758 18.1706C26.1367 18.1706 25.5977 18.4285 25.3047 18.9675L20.2305 28.0495C20.0898 28.2956 20.0195 28.5535 20.0195 28.823C20.0195 29.7019 20.6289 30.3933 21.5898 30.3933Z" fill="black" fill-opacity="0.85"/>
<path d="M26.6758 28.6121C26.1367 28.6121 25.6797 28.1667 25.6797 27.616C25.6797 27.0769 26.1367 26.6316 26.6758 26.6316C27.2266 26.6316 27.6719 27.0886 27.6601 27.616C27.6601 28.1667 27.2148 28.6121 26.6758 28.6121ZM26.6758 25.8113C26.2656 25.8113 25.9727 25.53 25.9609 25.1316L25.8672 21.7917C25.8555 21.3113 26.1836 20.9831 26.6758 20.9831C27.168 20.9831 27.4961 21.3113 27.4844 21.7917L27.3906 25.1316C27.3789 25.53 27.0859 25.8113 26.6758 25.8113Z" fill="#f00"/>
</g>
<defs>
<clipPath id="clip0_2124_45847">
<rect width="34.9336" height="31.9805" fill="white" transform="translate(0.00390625 0.0183105)"/>
</clipPath>
</defs>
</svg>
