<svg width="28" height="28" viewBox="0 0 28 28" fill="none" xmlns="http://www.w3.org/2000/svg">
<path d="M3.67969 21.5742H23.9531C26.4141 21.5742 27.6328 20.3672 27.6328 17.9531V3.63281C27.6328 1.21875 26.4141 0 23.9531 0H3.67969C1.23047 0 0 1.21875 0 3.63281V17.9531C0 20.3672 1.23047 21.5742 3.67969 21.5742ZM3.70312 19.6875C2.53125 19.6875 1.88672 19.0664 1.88672 17.8477V3.73828C1.88672 2.51953 2.53125 1.88672 3.70312 1.88672H23.9297C25.0898 1.88672 25.7461 2.51953 25.7461 3.73828V17.8477C25.7461 19.0664 25.0898 19.6875 23.9297 19.6875H3.70312Z" fill="#000" fill-opacity="0.85"/>
<path d="M11.6367 15.3633L18.3164 11.4141C18.8086 11.1328 18.7969 10.4531 18.3164 10.1602L11.6367 6.21092C11.1445 5.91795 10.4648 6.1406 10.4648 6.71482V14.8594C10.4648 15.4219 11.0977 15.6914 11.6367 15.3633Z" fill="#000" fill-opacity="0.85"/>
</svg>
