<svg width="30" height="28" viewBox="0 0 30 28" fill="none" xmlns="http://www.w3.org/2000/svg">
<g clip-path="url(#clip0_2124_24856)">
<path d="M3.01172 21.4648H26.2852C28.1602 21.4648 29.2969 20.3164 29.2969 18.4531V5.01172C29.2969 3.14844 28.1602 2 26.2852 2H3.01172C1.14844 2 0 3.14844 0 5.01172V18.4531C0 20.3164 1.14844 21.4648 3.01172 21.4648ZM3.04688 19.5781C2.32031 19.5781 1.88672 19.1445 1.88672 18.4297V5.03516C1.88672 4.32031 2.32031 3.88672 3.04688 3.88672H26.25C26.9766 3.88672 27.4102 4.32031 27.4102 5.03516V18.4297C27.4102 19.1445 26.9766 19.5781 26.25 19.5781H3.04688ZM8.75391 25.4375H20.543C21.0586 25.4375 21.4922 25.0156 21.4922 24.4883C21.4922 23.9609 21.0586 23.5391 20.543 23.5391H8.75391C8.23828 23.5391 7.80469 23.9609 7.80469 24.4883C7.80469 25.0156 8.23828 25.4375 8.75391 25.4375Z" fill="#000" fill-opacity="0.85"/>
<path d="M10.8516 16.5898C10.8516 17.2227 11.5195 17.4453 12.0234 17.1523L20.1562 12.3594C20.6484 12.0664 20.6367 11.3984 20.1445 11.1172L12.0234 6.33593C11.5195 6.04296 10.8516 6.26561 10.8516 6.89843V16.5898Z" fill="#000" fill-opacity="0.85"/>
</g>
<defs>
<clipPath id="clip0_2124_24856">
<rect width="29.2969" height="23.4492" fill="#000" transform="translate(0 2)"/>
</clipPath>
</defs>
</svg>
