<svg width="37" height="31" viewBox="0 0 37 31" fill="none" xmlns="http://www.w3.org/2000/svg">
<g clip-path="url(#clip0_2201_818)">
<path d="M11.6367 24.9023H23.8828C26.7422 24.9023 28.4531 23.2383 28.4531 20.3789V10.1484C28.4531 7.30078 26.7422 5.63672 23.8828 5.63672H11.6367C8.90625 5.63672 7.06641 7.30078 7.06641 10.1484V20.3789C7.06641 23.2383 8.77734 24.9023 11.6367 24.9023ZM11.9648 23.1328C10.043 23.1328 8.95312 22.1367 8.95312 20.1094V10.4297C8.95312 8.39062 10.043 7.39453 11.9648 7.39453H23.5547C25.4648 7.39453 26.5664 8.39062 26.5664 10.4297V20.1094C26.5664 22.1367 25.4648 23.1328 23.5547 23.1328H11.9648ZM28.1836 11.9883V14.2148L33.7617 9.60938C33.8672 9.52734 33.9375 9.46875 34.043 9.46875C34.1836 9.46875 34.2422 9.58594 34.2422 9.75V20.7891C34.2422 20.9531 34.1836 21.0586 34.043 21.0586C33.9375 21.0586 33.8672 21 33.7617 20.9297L28.1836 16.3242V18.5391L32.8828 22.5234C33.3516 22.9102 33.8672 23.1797 34.3477 23.1797C35.3789 23.1797 36.0586 22.418 36.0586 21.3281V9.21094C36.0586 8.12109 35.3789 7.35938 34.3477 7.35938C33.8672 7.35938 33.3516 7.62891 32.8828 8.01562L28.1836 11.9883Z" fill="#000" fill-opacity="0.85"/>
<path d="M8.05078 30.5508C8.98828 30.5508 9.78516 30.0352 10.1836 29.2969C10.3828 29.3438 10.5703 29.3789 10.7812 29.3789C12.0469 29.3789 13.1133 28.4883 13.3125 27.293L13.3242 27.1172C13.3828 27.1523 13.4648 27.1758 13.5469 27.1758C14.9766 27.1758 16.1016 26.0391 16.1016 24.6094V21.5977C16.1016 20.1914 14.9766 19.043 13.5469 19.043C13.4648 19.043 13.3828 19.0664 13.3242 19.1016L13.3125 18.9258C13.1133 17.7422 12.0469 16.8398 10.7812 16.8398C10.5703 16.8398 10.3828 16.875 10.1836 16.9336C9.78516 16.1953 8.98828 15.6797 8.05078 15.6797C6.86719 15.6797 5.89453 16.5 5.58984 17.5781L5.57812 17.7539C5.49609 17.7188 5.40234 17.6953 5.29688 17.6953C4.14844 17.6953 3.08203 18.457 2.85938 19.5469L2.84766 19.7227C2.75391 19.6875 2.64844 19.6641 2.54297 19.6641C1.13672 19.6641 0 20.8008 0 22.2188V24C0 25.4062 1.13672 26.5547 2.54297 26.5547C2.64844 26.5547 2.74219 26.5312 2.83594 26.4961L2.84766 26.6602C3.15234 27.7383 4.13672 28.5234 5.29688 28.5234C5.39062 28.5234 5.49609 28.5 5.56641 28.4648L5.57812 28.6523C5.88281 29.7305 6.84375 30.5508 8.05078 30.5508Z" fill="#f00"/>
<path d="M13.5469 25.2656C13.9219 25.2656 14.2031 24.9961 14.2031 24.6094V21.5977C14.2031 21.2344 13.9219 20.9414 13.5469 20.9414C13.1719 20.9414 12.8906 21.2461 12.8906 21.5977V24.6094C12.8906 24.9844 13.1719 25.2656 13.5469 25.2656Z" fill="#000" fill-opacity="0.85"/>
<path d="M10.7812 27.4805C11.168 27.4805 11.4609 27.1875 11.4609 26.8242V19.3945C11.4609 19.0312 11.168 18.7383 10.7812 18.7383C10.4297 18.7383 10.1367 19.0312 10.1367 19.3945V26.8242C10.1367 27.1875 10.4297 27.4805 10.7812 27.4805Z" fill="#000" fill-opacity="0.85"/>
<path d="M8.05078 28.6523C8.41406 28.6523 8.70703 28.3594 8.70703 27.9961V18.2461C8.70703 17.8711 8.41406 17.5781 8.05078 17.5781C7.67578 17.5781 7.39453 17.8711 7.39453 18.2461V27.9961C7.39453 28.3711 7.66406 28.6523 8.05078 28.6523Z" fill="#000" fill-opacity="0.85"/>
<path d="M5.29688 26.625C5.67188 26.625 5.96484 26.332 5.96484 25.957V20.2617C5.96484 19.8867 5.67188 19.5938 5.29688 19.5938C4.93359 19.5938 4.64062 19.8867 4.64062 20.2617V25.957C4.64062 26.332 4.93359 26.625 5.29688 26.625Z" fill="#000" fill-opacity="0.85"/>
<path d="M2.54297 24.6562C2.92969 24.6562 3.21094 24.3633 3.21094 24V22.2188C3.21094 21.8555 2.92969 21.5625 2.54297 21.5625C2.17969 21.5625 1.89844 21.8555 1.89844 22.2188V24C1.89844 24.3633 2.17969 24.6562 2.54297 24.6562Z" fill="#000" fill-opacity="0.85"/>
</g>
<defs>
<clipPath id="clip0_2201_818">
<rect width="36.0586" height="30.5508" fill="#f00"/>
</clipPath>
</defs>
</svg>
